<svg id="Layer_1" data-name="Layer 1" xmlns="http://www.w3.org/2000/svg" viewBox="0 0 440.47 249.53"><defs><style>.cls-1{fill:#028964;}.cls-2,.cls-3{fill:#32b087;}.cls-3{font-size:72.69px;font-family:Exo-ExtraBold, Exo;}.cls-3,.cls-4{font-weight:800;}.cls-4{font-size:21px;fill:#1d1d1b;font-family:PlayfairDisplay-BlackItalic, Playfair Display;font-style:italic;}.cls-5{letter-spacing:-0.1em;}</style></defs><path class="cls-1" d="M367.77,104.51a81.26,81.26,0,0,0-.94-9.92A73.66,73.66,0,0,0,364.61,85c-.25-.78-.47-1.56-.75-2.33s-.55-1.53-.82-2.29c-.63-1.5-1.22-3-1.94-4.44s-1.46-2.85-2.21-4.24-1.61-2.72-2.52-4-1.82-2.52-2.74-3.74-1.93-2.36-3-3.42a57.55,57.55,0,0,0-6.5-5.89c-1.15-.84-2.25-1.72-3.43-2.45L339,51.06l-1.75-1a61.81,61.81,0,0,0-7-3.34A65,65,0,0,0,317.42,43c-1-.16-1.92-.38-2.84-.48l-2.66-.34c-1.7-.2-3.28-.26-4.69-.38s-2.69-.08-3.79-.1-2,0-2.79,0l-2.32.06,2.31.16c.76.07,1.69.09,2.78.23l3.73.43a91.67,91.67,0,0,1,9.92,1.94,71.29,71.29,0,0,1,12.24,4.36,61.16,61.16,0,0,1,12.85,8.15,53.69,53.69,0,0,1,5.91,5.79c.48.52.95,1.05,1.38,1.62l1.35,1.67c.84,1.18,1.72,2.33,2.49,3.58s1.53,2.51,2.28,3.79,1.39,2.65,2,4a68.38,68.38,0,0,1,5.19,17.66,77.17,77.17,0,0,1,.83,9.32l0,2.42c0,.77,0,1.54,0,2.32s-.09,1.54-.14,2.31-.14,1.54-.24,2.3a54.87,54.87,0,0,1-1.95,9,59.88,59.88,0,0,1-7.87,16.16c-.81,1.23-1.73,2.36-2.6,3.51s-1.82,2.22-2.8,3.24-2,2-2.94,3c-.49.48-1,.93-1.52,1.39s-1,.92-1.55,1.33a65.57,65.57,0,0,1-12.8,8.31A73.9,73.9,0,0,1,317,164.53c-1.88.48-3.65.95-5.31,1.27s-3.18.6-4.57.82l-1,.16-1,.11-1.75.2c-1.09.15-2,.2-2.78.26l-2.31.16,2.32.06c.76,0,1.69.07,2.79,0l1.78,0,1,0,1-.08c1.41-.11,3-.21,4.68-.46s3.54-.55,5.49-.91a68.25,68.25,0,0,0,12.77-4A62.28,62.28,0,0,0,343.91,154c.58-.41,1.13-.87,1.68-1.33s1.12-.92,1.66-1.41c1.08-1,2.19-2,3.22-3s2.06-2.19,3.07-3.34,1.95-2.37,2.84-3.65a59.92,59.92,0,0,0,5-8.08,56.42,56.42,0,0,0,5.92-18.7c.12-.82.23-1.65.28-2.49s.16-1.67.17-2.51.07-1.67.06-2.51Z"/><path class="cls-1" d="M367.77,104.51a72,72,0,0,0-5.46-25.67A61.17,61.17,0,0,0,356,67.33l-2-2.65a14,14,0,0,0-1-1.28l-1.07-1.25a53.81,53.81,0,0,0-4.67-4.64,49.22,49.22,0,0,0-5.18-4A45,45,0,0,0,336.46,50a62.17,62.17,0,0,0-12.14-4.89q-3.17-.89-6.39-1.47c-1.06-.19-2.14-.35-3.21-.53s-2.19-.27-3.28-.37a92.2,92.2,0,0,0-13.09-.19l0-1.54A109.17,109.17,0,0,1,311,42.33a78.86,78.86,0,0,1,12.38,3.07,60.84,60.84,0,0,1,22,12.87A47.18,47.18,0,0,1,349.9,63c.72.83,1.37,1.64,2,2.47l1.86,2.64c.65.86,1.18,1.8,1.75,2.71l.83,1.38.42.69.37.73,1.44,2.9c.48,1,.88,1.94,1.29,2.93a71,71,0,0,1,3.72,12.32,77.31,77.31,0,0,1,1.45,12.78c0,2.11.07,4.2-.11,6.39,0,1.09-.21,2.19-.31,3.27s-.32,2.14-.52,3.2a53,53,0,0,1-1.6,6.28c-.67,2-1.43,4-2.29,6a54.3,54.3,0,0,1-6.45,11.15l-1.94,2.58-2.11,2.43c-.69.82-1.45,1.57-2.2,2.33s-1.48,1.54-2.3,2.24-1.63,1.43-2.47,2.14-1.66,1.32-2.52,1.95c-1.73,1.27-3.5,2.46-5.34,3.56a67.69,67.69,0,0,1-11.58,5.48c-2,.73-4,1.38-6.1,2s-4.13,1-6.22,1.36a91.29,91.29,0,0,1-12.63,1.44l0-1.55c2.22.07,4.34.16,6.56.11s4.34-.29,6.52-.45a66.62,66.62,0,0,0,24.87-7.76,65,65,0,0,0,10.76-7.5,62.5,62.5,0,0,0,15.66-21A57.67,57.67,0,0,0,367.77,104.51Zm0,0a57.73,57.73,0,0,1-4.94,25.72,63.52,63.52,0,0,1-15.47,21.23,67.75,67.75,0,0,1-10.72,7.79,66.73,66.73,0,0,1-12.1,5.44,67.48,67.48,0,0,1-13,3c-2.2.21-4.39.56-6.63.61s-4.46.06-6.64,0l0-1.55a91.22,91.22,0,0,0,12.38-1.68c2-.41,4.05-1,6.07-1.47s3.94-1.27,5.87-2A65.41,65.41,0,0,0,333.66,156c1.75-1.09,3.44-2.28,5.08-3.54.82-.63,1.62-1.27,2.43-1.94s1.52-1.32,2.28-2,1.46-1.45,2.18-2.19,1.45-1.47,2.1-2.27l2-2.36,1.81-2.48a54.45,54.45,0,0,0,6-10.69,53.66,53.66,0,0,0,3.64-11.71c.19-1,.35-2,.48-3s.24-2,.28-3c.16-2,.1-4.12.08-6.21a75.26,75.26,0,0,0-1.33-12.26,68,68,0,0,0-3.51-11.81c-.75-1.93-1.7-3.77-2.57-5.61l-.34-.69-.39-.66-.78-1.32c-.53-.88-1-1.79-1.63-2.61l-1.74-2.54c-.64-.81-1.29-1.65-1.94-2.41a45.44,45.44,0,0,0-4.18-4.49,59.39,59.39,0,0,0-21-12.8,88.6,88.6,0,0,0-24.43-4.79l0-1.54a93.56,93.56,0,0,1,13.28.48c1.1.12,2.18.28,3.27.44s2.19.39,3.29.61c2.17.45,4.32,1,6.44,1.64a63.19,63.19,0,0,1,12.2,5.21A46.4,46.4,0,0,1,342.35,53a53,53,0,0,1,5.16,4.16,54.52,54.52,0,0,1,4.64,4.73l1.06,1.27a16.11,16.11,0,0,1,1,1.3l1.94,2.69a64.36,64.36,0,0,1,6.26,11.61A72.08,72.08,0,0,1,367.77,104.51Z"/><path class="cls-2" d="M289.26,162.79l-2.13-1.17c-.74-.41-1.49-.89-2.27-1.33l-1.18-.7-1.19-.76-1.22-.78c-.42-.25-.83-.52-1.24-.82a81.93,81.93,0,0,1-10-7.89c-.41-.39-.82-.78-1.24-1.15s-.81-.81-1.22-1.21l-1.21-1.22-1.2-1.28c-.8-.84-1.57-1.77-2.36-2.64-.39-.47-.77-1-1.16-1.4l-.59-.69-.57-.74c-1.54-1.89-3-4-4.55-6.09-.73-1.09-1.49-2.16-2.24-3.3s-1.48-2.3-2.26-3.44c-1.49-2.38-3-4.82-4.54-7.37-.77-1.3-1.55-2.57-2.31-3.91l-2.37-4-2.56-4.39c1-1.8,2.07-3.59,3.07-5.34l4.75-8.35C249,90.09,250.5,87.51,252,85c.77-1.22,1.48-2.49,2.23-3.66s1.48-2.33,2.2-3.5l1.12-1.67c.35-.57.73-1.1,1.1-1.64.73-1.09,1.49-2.1,2.21-3.15,1.51-2,3-4,4.54-5.76.75-1,1.57-1.75,2.32-2.65.39-.43.8-.82,1.19-1.24s.78-.85,1.2-1.22a76.53,76.53,0,0,1,9.84-8.23,89.73,89.73,0,0,1,9.23-5.72c1.39-.79,2.62-1.42,3.74-2,.56-.3,1.09-.57,1.57-.81l1.37-.66c1.63-.79,2.5-1.27,2.5-1.27s-.89-.45-2.56-1.16l-1.4-.59c-.52-.2-1.1-.38-1.74-.59s-1.33-.44-2.08-.67-1.53-.41-2.37-.61a53.88,53.88,0,0,0-12.58-1.51,60.14,60.14,0,0,0-16.91,2.39A71.86,71.86,0,0,0,240,47.67l-2.28,1.5c-.77.52-1.48,1.07-2.24,1.61-1.52,1.07-2.93,2.23-4.39,3.41s-2.87,2.41-4.21,3.69-2.72,2.57-4,3.91c-2.62,2.67-5.11,5.46-7.51,8.3-.75-.91-1.5-1.81-2.27-2.71-2.48-2.8-5-5.54-7.73-8.13a93.77,93.77,0,0,0-17.58-13.41A70.46,70.46,0,0,0,169,38.17a60.36,60.36,0,0,0-16.61-1.78c-1.22,0-2.4.13-3.52.23l-1.65.15c-.54.07-1.07.16-1.58.24-1,.16-2,.32-2.93.5s-1.8.43-2.62.62a45,45,0,0,0-4.37,1.32c-.62.22-1.21.38-1.71.61l-1.37.59c-1.64.71-2.51,1.16-2.51,1.16s.85.48,2.46,1.27,3.88,2,6.6,3.43c.68.37,1.39.78,2.13,1.17L143.61,49l1.18.69,1.19.77,1.22.78c.41.24.82.53,1.23.82a80.29,80.29,0,0,1,10,7.92,87.79,87.79,0,0,1,9.48,10.38,149.14,149.14,0,0,1,9,12.93c.38.59.75,1.19,1.13,1.79L179.14,87c.77,1.2,1.51,2.51,2.27,3.77,1.54,2.56,3.06,5.26,4.67,8,1.42,2.45,2.87,5,4.37,7.51l-4.36,6.94c-.85,1.3-1.67,2.63-2.51,3.88s-1.64,2.52-2.46,3.77c-1.64,2.45-3.29,4.78-4.91,7.06-.85,1.08-1.64,2.24-2.47,3.29s-1.66,2.1-2.48,3.14c-.4.53-.84,1-1.26,1.5s-.82,1-1.25,1.48l-1.27,1.44-1.28,1.39c-.84,1-1.73,1.78-2.59,2.69s-1.76,1.68-2.63,2.54c-1.79,1.61-3.58,3.19-5.41,4.61a108.87,108.87,0,0,1-10.88,7.55c-.88.51-1.75,1-2.6,1.54s-1.69.93-2.5,1.39c-1.62.93-3.17,1.67-4.58,2.44-.7.38-1.38.7-2,1l-1.82.93q-.85.44-1.59.78l-1.35.65c-1.62.79-2.5,1.27-2.5,1.27s.87.45,2.56,1.17a33.27,33.27,0,0,0,3.14,1.24c1.25.42,2.7,1,4.35,1.38.83.21,1.7.44,2.63.65.46.11.94.23,1.43.33l1.5.26c1,.18,2.1.38,3.23.51s2.29.25,3.51.35a68.21,68.21,0,0,0,16.67-.86,74.59,74.59,0,0,0,9.53-2.34,78.52,78.52,0,0,0,9.83-3.95c.81-.41,1.66-.78,2.47-1.23l2.43-1.34c1.64-.91,3.23-1.91,4.82-3l2.37-1.6c.8-.54,1.54-1.12,2.32-1.7,1.56-1.13,3-2.35,4.54-3.59,2.94-2.5,5.76-5.18,8.46-8,1.17-1.26,2.37-2.53,3.51-3.81l.22.26c2.48,2.8,5.06,5.53,7.77,8.11,1.38,1.3,2.73,2.56,4.18,3.76.72.61,1.41,1.22,2.14,1.8l2.21,1.71c1.49,1.11,3,2.21,4.51,3.2l2.29,1.49c.78.48,1.57.93,2.35,1.38l1.16.67,1.18.62c.79.42,1.58.82,2.36,1.21l2.38,1.09,1.17.52,1.2.47,2.35.91c.78.29,1.58.53,2.36.78,1.55.5,3.09.92,4.61,1.28A60.86,60.86,0,0,0,276.08,173c1.21,0,2.4-.15,3.52-.25l1.65-.16,1.57-.25c1-.16,2-.32,2.93-.51s1.8-.43,2.62-.63a43,43,0,0,0,4.33-1.33c.62-.22,1.19-.39,1.71-.61l1.4-.6c1.66-.72,2.52-1.17,2.52-1.17s-.87-.48-2.46-1.27S292,164.28,289.26,162.79Z"/><path class="cls-1" d="M56.27,104.5a83.3,83.3,0,0,1,.95-9.92A71.24,71.24,0,0,1,59.44,85c.25-.77.46-1.56.74-2.33s.56-1.53.83-2.29c.62-1.5,1.22-3,1.94-4.44s1.45-2.85,2.2-4.24,1.62-2.72,2.52-4,1.82-2.52,2.74-3.74,1.94-2.36,3-3.42a57.55,57.55,0,0,1,6.5-5.89c1.15-.84,2.25-1.72,3.43-2.45l1.71-1.12,1.76-1a62.72,62.72,0,0,1,7-3.34A64.76,64.76,0,0,1,106.63,43c1-.17,1.92-.39,2.84-.49l2.66-.34c1.7-.19,3.28-.26,4.69-.38s2.68-.08,3.78-.1,2,0,2.8.05l5.39.11s-3.88.07-5.39.12c-.75,0-1.68.09-2.77.23l-3.74.42a91.84,91.84,0,0,0-9.91,2,70.45,70.45,0,0,0-12.25,4.35,60.76,60.76,0,0,0-12.84,8.16A53.67,53.67,0,0,0,76,62.86c-.47.53-.94,1.06-1.37,1.63l-1.35,1.67c-.84,1.17-1.73,2.32-2.49,3.57s-1.53,2.51-2.28,3.8-1.39,2.64-2,4a65.05,65.05,0,0,0-3.17,8.58,67.42,67.42,0,0,0-2,9.08,79.42,79.42,0,0,0-.82,9.32l0,2.42c0,.78,0,1.55,0,2.32s.09,1.54.14,2.31.14,1.54.24,2.31a54,54,0,0,0,2,9,59.88,59.88,0,0,0,7.87,16.16c.81,1.23,1.72,2.36,2.6,3.51s1.82,2.22,2.8,3.24,2,2,2.93,3c.5.48,1,.93,1.53,1.39s1,.92,1.55,1.34a66.21,66.21,0,0,0,12.79,8.3A74,74,0,0,0,107,164.52c1.88.48,3.64.95,5.3,1.27s3.19.6,4.58.82l1,.16,1,.11,1.75.21c1.08.15,2,.19,2.77.25l2.32.17-2.32.06c-.76,0-1.69.06-2.79,0l-1.78,0-1,0-1-.08c-1.42-.11-3-.21-4.69-.46s-3.53-.55-5.49-.91a67.58,67.58,0,0,1-12.76-4A63.13,63.13,0,0,1,80.13,154c-.57-.42-1.12-.88-1.67-1.34s-1.12-.92-1.67-1.4c-1.07-1-2.18-2-3.21-3.06s-2.06-2.19-3.07-3.34-2-2.37-2.84-3.65a58.15,58.15,0,0,1-10.91-26.77c-.11-.83-.22-1.66-.28-2.49s-.16-1.67-.16-2.51-.07-1.68-.06-2.52Z"/><path class="cls-1" d="M56.27,104.5A78.47,78.47,0,0,1,57.85,91a69.31,69.31,0,0,1,4-13,59.31,59.31,0,0,1,15.79-21.9,60,60,0,0,1,24-12.6c2.19-.6,4.46-1.05,6.67-1.48,1.17-.2,2.27-.32,3.39-.49s2.29-.25,3.42-.34l1.7-.14,1.7-.06c1.14,0,2.28-.11,3.45-.08l6.79.11v1.54c-2.12.07-4.3.08-6.36.21-1,.08-2.07.24-3.13.36s-2.13.24-3.15.43a80.49,80.49,0,0,0-12.32,2.89,64.25,64.25,0,0,0-11.56,4.94,59.75,59.75,0,0,0-10.24,7.18C69.39,69.68,62.7,86.42,62,103.07c-1.32,16.72,5.94,33.41,18,44.94.76.7,1.54,1.43,2.3,2.1s1.62,1.34,2.44,2c1.64,1.3,3.36,2.51,5.12,3.65a64.76,64.76,0,0,0,11.2,5.69c2,.78,4,1.48,6,2.08s4.06,1.11,6.15,1.54c1,.23,2.05.41,3.1.58s2.06.35,3.13.47,2.1.3,3.14.38l3.19.26,0,1.56a80.06,80.06,0,0,1-13.29-.62,69,69,0,0,1-12.94-3,64.28,64.28,0,0,1-22.82-13.23,62.23,62.23,0,0,1-15.47-21.23A57.58,57.58,0,0,1,56.27,104.5Zm0,0a57.58,57.58,0,0,0,5.06,25.68A61.39,61.39,0,0,0,77,151.13a63.48,63.48,0,0,0,10.77,7.5,65.3,65.3,0,0,0,12.06,5.12,68.29,68.29,0,0,0,12.81,2.66,78.12,78.12,0,0,0,13.08.32l0,1.55-3.19-.19c-1.1-.06-2.19-.21-3.23-.31s-2.17-.25-3.21-.41-2.13-.32-3.2-.53c-2.1-.39-4.22-.9-6.3-1.44s-4.15-1.25-6.18-2a67.51,67.51,0,0,1-11.71-5.65,64.33,64.33,0,0,1-10.42-7.87,61.45,61.45,0,0,1-14.88-21.29,63.76,63.76,0,0,1-2.21-6.18A57.78,57.78,0,0,1,59.67,116c-.18-1.09-.32-2.14-.45-3.25l-.07-.86-.06-.77c0-.53-.09-1.1-.1-1.71l0-1.58c0-.57,0-1.14,0-1.66l0-1.6.06-1.64A70.82,70.82,0,0,1,64.91,77.6,58.73,58.73,0,0,1,80.36,56.71a62.47,62.47,0,0,1,22.89-12.14,82.3,82.3,0,0,1,12.65-2.68c1.08-.18,2.14-.25,3.21-.37s2.12-.24,3.23-.31c2.19-.08,4.29-.08,6.44-.13v1.54c-2.27-.06-4.52-.09-6.8-.19-1.1,0-2.22,0-3.35,0l-1.68,0-1.69.11c-1.13.06-2.25.13-3.36.26s-2.27.24-3.34.41c-2.24.38-4.43.77-6.62,1.31a59.18,59.18,0,0,0-24,12,58.47,58.47,0,0,0-16,21.6A69.61,69.61,0,0,0,57.9,91,79.3,79.3,0,0,0,56.27,104.5Z"/><text class="cls-3" transform="translate(82.84 129.63)">Hé</text><path class="cls-2" d="M277.8,78.17a1.42,1.42,0,0,1,1.51-1.63h7.8a1.43,1.43,0,0,1,1.44,1.63v6.35A1.32,1.32,0,0,1,287.11,86h-7.8a1.41,1.41,0,0,1-1.51-1.45Zm-.86,10.62h12.48v40.43H276.94Z"/><path class="cls-2" d="M294.22,99.6c0-6.24,2.74-11.19,10.5-11.19,9.21,0,19.42,0,22.23,2.36v7.61H309.22c-2,0-2.52.46-2.52,2.14v1.21c0,2,1.14,2,2.52,2H318c8.07,0,11,4.8,11,10.74v4.26c0,8.3-5,10.89-9.89,10.89-9.06,0-20.33-.08-23.15-2.51v-7.54h18.5c1,0,2.06-.23,2.06-2v-1.22c0-1.37-.31-2-2.06-2h-8.45c-7.16,0-11.72-3.35-11.72-11.2Z"/><text class="cls-4" transform="translate(31.24 204.62)"><tspan class="cls-5">T</tspan><tspan x="12.49" y="0">est your skills to infinity and beyond</tspan></text></svg>